<svg version="1.2" xmlns="http://www.w3.org/2000/svg" viewBox="0 0 810 810" width="112" height="112"><style>.a{fill:#03e4bc}</style><path class="a" d="m364.8 1c-66.1 6.7-127.7 28.5-182.4 64.6-19.4 12.7-45.5 33.5-56.9 45.3-4.4 4.5-8.6 8.2-9.2 8.2-0.7 0-1.3-14.7-1.3-32.6 0-31.6-0.2-32.5-4-39.1-9.9-17.1-34.8-15.7-43.9 2.4-3.7 7.1-3.7 7.9-3.7 71.7 0 37.4 0.7 66.9 1.6 70.1 2 7.3 10.5 15.6 17.9 17.7 3.1 1 32.6 1.6 70 1.6 63.8 0 64.6 0 71.7-3.7 14.3-7.1 18.7-22 10.4-35.7-6.4-11.3-9.8-12.1-49.1-12.1-26.6 0-34-0.5-33.5-2.1 1.6-4.5 35.8-33.1 55.4-46.3 46.1-30.9 100.6-51.4 153.7-58 20.2-2.4 69.3-1.9 91.1 0.8 52.5 7 103.1 26.3 149.1 56.9 84.9 56.9 143.2 151.5 154.7 250.9 2 18.9 2 68.8 0 86.2-12.6 100.9-69.8 193.9-154.4 250.4-162.8 108.8-382.4 65.1-491.2-97.4-36.3-54.4-55.8-114.8-59.5-184.1-0.9-17.2-1.6-21.2-4.6-25.6-4.9-7.4-13.2-12.6-20-12.6-8.4 0-19 5.7-23.2 12.6-3.4 5.5-3.7 7.6-3.4 25.6 1 63.8 20.8 133.5 54.3 191.1 30.8 53.1 81.2 105.8 132.9 139 70.6 44.9 162 68.3 243.5 62.2 105.1-8.1 194.5-49.7 265.9-123.6 62.4-64.8 100.1-144.9 111.4-236.8 4.2-34.9 1.3-89.9-6.8-128.1-36.4-171.1-178.5-300.2-351.4-318.9-14.4-1.6-71.9-2.1-85.1-0.6z"/><path class="a" d="m394.8 181.6c-4.1 2.1-8.9 6.2-10.8 9.2-3.4 5-3.7 7.4-3.7 26v20.4l-10.5 1.2c-49.8 5.1-88.5 46.4-88.3 94.4 0 26.9 8.9 48.7 27.9 67.8 9 9.2 15.1 13.7 24.1 18.1 20.8 10.1 27.3 11.3 68.4 11.9 20.3 0.2 39.4 1.1 42.7 2.1 22 6 37.2 29.7 32.5 50.8-3.5 15.9-14.8 28.2-31.1 34-5.3 1.7-20.1 2.2-76 2.2-69.2 0-69.5 0-75.9 3.7-17.8 10.2-17.8 35.6 0 45.8 6.1 3.5 7.9 3.7 46.2 3.7h39.6l0.7 21.6c0.5 23.4 1.4 26.4 11.3 33.7 11.1 8.2 29.1 3.2 36.2-10.2 3.3-6.1 3.7-9.2 3.7-26.9v-19.8h5.4c9.3 0 29.8-6.1 41.7-12.4 45.9-24.2 63.8-78.8 41.1-126-7.4-15.3-26.9-34.7-43-42.6-20.7-10.1-26.9-11.1-69.3-11.4-31.9-0.3-38.9-0.8-44.3-3.2-10.8-4.7-18.3-10.7-23.6-19.1-7.1-11.1-8.4-27.2-3-39.6 4.5-10.6 14.6-19.8 26.4-24.3 8.9-3.3 11.6-3.4 78-3.4 68.3 0 68.8 0 75.2-3.7 7.9-4.5 13.7-14.2 13.7-22.9 0-8.7-5.8-18.4-13.7-22.9-6.1-3.5-7.9-3.7-45.4-3.7h-39.2v-18c0-15-0.6-19.2-3.3-25-6.7-13.7-20.3-18.4-33.7-11.5z"/></svg>